# AST/ASF file generated using VICON BodyLanguage
# -----------------------------------------------
:version 1.10
:name VICON
:units
  mass 1.0
  length 0.45
  angle deg
:documentation
   .ast/.asf automatically generated from VICON data using
   VICON BodyBuilder and BodyLanguage model FoxedUp or BRILLIANT.MOD
:root
   order TX TY TZ RX RY RZ
   axis XYZ
   position 0 0 0  
   orientation 0 0 0 
:bonedata
  begin
     id 1 
     name lhipjoint
     direction 0.573633 -0.743009 0.344793 
     length 2.46257 
     axis 0 0 0  XYZ
  end
  begin
     id 2 
     name lfemur
     direction 0.34202 -0.939693 0  
     length 7.3842  
     axis 0 0 20  XYZ
    dof rx ry rz
    limits (-160.0 20.0)
           (-70.0 70.0)
           (-60.0 70.0)
  end
  begin
     id 3 
     name ltibia
     direction 0.34202 -0.939693 0   
     length 7.50407   
     axis 0 0 20   XYZ
    dof rx
    limits (-10.0 170.0)
  end
  begin
     id 4 
     name lfoot
     direction 0.110749 -0.304281 0.946123   
     length 1.95925   
     axis -90 7.62852e-016 20   XYZ
    dof rx rz
    limits (-45.0 90.0)
           (-70.0 20.0)
  end
  begin
     id 5 
     name ltoes
     direction 1.53554e-011 -4.21843e-011 1   
     length 0.978318   
     axis -90 7.62852e-016 20   XYZ
    dof rx
    limits (-90.0 20.0)
  end
  begin
     id 6 
     name rhipjoint
     direction -0.488109 -0.791693 0.367385   
     length 2.31113  
     axis 0 0 0  XYZ 
  end
  begin
     id 7 
     name rfemur
     direction -0.34202 -0.939693 0   
     length 7.40965   
     axis 0 0 -20   XYZ
    dof rx ry rz
    limits (-160.0 20.0)
           (-70.0 70.0)
           (-70.0 60.0)
  end
  begin
     id 8 
     name rtibia
     direction -0.34202 -0.939693 0   
     length 7.55548   
     axis 0 0 -20   XYZ
    dof rx
    limits (-10.0 170.0)
 end
 begin
     id 9 
     name rfoot
     direction -0.127594 -0.350561 0.927808   
     length 2.07199  
     axis -90 -7.62852e-016 -20   XYZ
    dof rx rz
    limits (-45.0 90.0)
           (-20.0 70.0)
  end
  begin
     id 10 
     name rtoes
     direction -1.53542e-011 -4.21909e-011 1   
     length 1.02667   
     axis -90 -7.62852e-016 -20   XYZ
    dof rx
    limits (-90.0 20.0)
  end
  begin
     id 11 
     name lowerback
     direction -0.0103342 0.997298 -0.0727278   
     length 2.02836   
     axis 0 0 0   XYZ
    dof rx ry rz
    limits (-20.0 45.0)
           (-30.0 30.0)
           (-30.0 30.0)
  end
  begin
     id 12 
     name upperback
     direction 0.0171146 0.999786 -0.011606   
     length 2.03179   
     axis 0 0 0   XYZ
    dof rx ry rz
    limits (-20.0 45.0)
           (-30.0 30.0)
           (-30.0 30.0)
  end
  begin
     id 13 
     name thorax
     direction 0.0216927 0.999513 0.0224343   
     length 2.03882   
     axis 0 0 0   XYZ
    dof rx ry rz
    limits (-20.0 45.0)
           (-30.0 30.0)
           (-30.0 30.0)
  end
  begin
     id 14 
     name lowerneck
     direction 0.000989287 0.993907 0.110221   
     length 1.75428   
     axis 0 0 0   XYZ
    dof rx ry rz
    limits (-20.0 45.0)
           (-30.0 30.0)
           (-30.0 30.0)
  end
  begin
     id 15 
     name upperneck
     direction -0.0172474 0.994813 -0.100253   
     length 1.77058   
     axis 0 0 0   XYZ
    dof rx ry rz
    limits (-20.0 45.0)
           (-30.0 30.0)
           (-30.0 30.0)
  end
  begin
     id 16
     name head
     direction -0.00486455 0.99894 -0.0457663  
     length 1.77427  
     axis 0 0 0   XYZ
    dof rx ry rz
    limits (-20.0 45.0)
           (-30.0 30.0)
           (-30.0 30.0)
  end
  begin
     id 17 
     name lclavicle
     direction 0.927314 0.333734 -0.169441  
     length 3.97584  
     axis 0 0 0   XYZ
    dof ry rz
    limits (-20.0 10.0)
           (0.0 20.0)
  end
  begin
     id 18 
     name lhumerus
     direction 1 -4.48965e-011 -3.25313e-028   
     length 4.76468   
     axis 180 -30 -90   XYZ
    dof rx ry rz
    limits (-60.0 90.0)
           (-90.0 90.0)
           (-90.0 90.0)
  end
  begin
     id 19
     name lradius
     direction 1 -4.48969e-011 -2.8465e-028   
     length 3.52712   
     axis -180 -30 -90   XYZ
    dof rx
    limits (-10.0 170.0)
  end
  begin
     id 20
     name lwrist
     direction 1 -4.4896e-011 -7.78665e-028   
     length 1.76356   
     axis 1.91374e-015 90 90   XYZ
    dof ry
    limits (-180.0 0.0)
 end
  begin
     id 21 
     name lhand
     direction 1 -4.48959e-011 -1.55733e-027   
     length 0.859564   
     axis 9.9371e-016 90 90   XYZ
    dof rx rz
    limits (-90.0 90.0)
           (-45.0 45.0)
  end
  begin
     id 22 
     name lfingers
     direction 1 -4.48965e-011 -3.11466e-027   
     length 0.693002   
     axis 1.98742e-015 90 90   XYZ
    dof rx
    limits (0.0 90.0)
  end
  begin
     id 23
     name lthumb
     direction 0.707107 -6.34948e-011 0.707107   
     length 0.995017   
     axis -90 45 2.85299e-015   XYZ
    dof rx rz
    limits (-45.0 45.0)
           (-45.0 45.0)
  end
  begin
     id 24 
     name rclavicle
     direction -0.899388 0.348209 -0.264294   
     length 3.68366  
     axis 0 0 0   XYZ 
    dof ry rz
    limits (-10.0 20.0)
           (-20.0 0.0)
  end
  begin
     id 25 
     name rhumerus
     direction -1 -4.48965e-011 -3.01536e-027  
     length 4.90577   
     axis 180 30 90   XYZ
    dof rx ry rz
    limits (-90.0 60.0)
           (-90.0 90.0)
           (-90.0 90.0)
  end
  begin
     id 26 
     name rradius
     direction -1 -4.48966e-011 3.93291e-027   
     length 3.42692   
     axis -180 30 90   XYZ
    dof rx
    limits (-10.0 170.0)
  end
  begin
     id 27 
     name rwrist
     direction -1 -4.48969e-011 -7.78665e-028   
     length 1.71346   
     axis 1.91374e-015 -90 -90   XYZ
    dof ry
    limits (-180.0 0.0)
  end
  begin
     id 28
     name rhand
     direction -1 -4.48967e-011 -1.55733e-027   
     length 0.740957   
     axis 9.9371e-016 -90 -90   XYZ
    dof rx rz
    limits (-90.0 90.0)
           (-45.0 45.0)
  end
  begin
     id 29
     name rfingers
     direction -1 -4.48949e-011 -3.11466e-027   
     length 0.597378   
     axis 1.98742e-015 -90 -90   XYZ
    dof rx
    limits (0.0 90.0)
  end
  begin
     id 30
     name rthumb
     direction -0.707107 -6.34931e-011 0.707107   
     length 0.857719   
     axis -90 -45 -2.85299e-015   XYZ
    dof rx rz
    limits (-45.0 45.0)
           (-45.0 45.0)
  end
:hierarchy
  begin
    root lhipjoint rhipjoint lowerback
    lhipjoint lfemur
    lfemur ltibia
    ltibia lfoot
    lfoot ltoes
    rhipjoint rfemur
    rfemur rtibia
    rtibia rfoot
    rfoot rtoes
    lowerback upperback
    upperback thorax
    thorax lowerneck lclavicle rclavicle
    lowerneck upperneck
    upperneck head
    lclavicle lhumerus
    lhumerus lradius
    lradius lwrist
    lwrist lhand lthumb
    lhand lfingers
    rclavicle rhumerus
    rhumerus rradius
    rradius rwrist
    rwrist rhand rthumb
    rhand rfingers
  end

#!OML:ASF E:\I on waltz\AllaLogoMonkeySwing\Project 1\Capture day 1\Session 1\Subject1.ASF
:FULLY-SPECIFIED
:DEGREES
111
root -7.00429 15.8575 -13.1443 23.0022 33.834 7.17319
lowerback 21.0061 -0.796815 -5.65648
upperback 3.34748 -2.18876 0.148547
thorax -7.85828 -0.855483 3.9781
lowerneck -11.2903 1.36304 -0.593223
upperneck -8.50544 1.96008 -1.31888
head -0.77892 1.05711 -0.258205
rclavicle -1.1291e-013 4.31363e-014
rhumerus -36.9187 -0.295477 -87.753
rradius 47.9403
rwrist -7.55962
rhand -14.2466 -36.9059
rfingers 7.12502
rthumb 11.8913 -66.5482
lclavicle -1.1291e-013 4.31363e-014
lhumerus -40.1393 0.222811 94.0222
lradius 55.6522
lwrist 15.0117
lhand -19.7355 -22.7585
lfingers 7.12502
lthumb 6.59511 7.11876
rfemur -60.5713 -9.31941 16.3456
rtibia 78.3428
rfoot -20.8371 -14.745
rtoes 23.037
lfemur -28.638 -2.235 -29.3534
ltibia 58.1368
lfoot -34.5272 -5.88192
ltoes -22.8484
112
root -6.6974 15.716 -12.6329 22.7612 35.1173 7.7472
lowerback 21.047 -1.32011 -5.9328
upperback 3.51568 -2.89737 0.386999
thorax -7.58973 -1.19533 4.57806
lowerneck -10.897 1.50296 -0.297621
upperneck -8.90669 2.10619 -1.41023
head -0.960085 1.12633 -0.336844
rclavicle -1.37161e-014 2.38542e-015
rhumerus -38.1907 -0.876235 -86.6957
rradius 46.0629
rwrist -8.70572
rhand -13.6259 -36.637
rfingers 7.12502
rthumb 12.4898 -66.2437
lclavicle -1.37161e-014 2.38542e-015
lhumerus -38.1008 0.0623488 94.0675
lradius 55.2863
lwrist 13.314
lhand -19.8813 -22.3004
lfingers 7.12502
lthumb 6.45437 7.58126
rfemur -64.399 -9.88781 16.6264
rtibia 75.4693
rfoot -20.8654 -15.4558
rtoes 21.8478
lfemur -26.2942 -3.21965 -29.046
ltibia 59.5595
lfoot -34.3766 -8.14516
ltoes -21.8081
113
root -6.37547 15.5713 -12.0961 22.3016 36.5194 8.11661
lowerback 20.9544 -1.85557 -6.00113
upperback 3.67529 -3.56749 0.644823
thorax -7.26244 -1.52769 5.05823
lowerneck -10.7109 1.5749 -0.108491
upperneck -8.93301 2.18452 -1.299
head -0.996157 1.15907 -0.333628
rclavicle -5.45664e-014 2.127e-014
rhumerus -39.8902 -0.70716 -85.8785
rradius 44.5323
rwrist -10.3722
rhand -13.5625 -35.9519
rfingers 7.12502
rthumb 12.5509 -65.555
lclavicle -5.45664e-014 2.127e-014
lhumerus -36.8762 -0.696159 94.3327
lradius 56.5052
lwrist 12.7991
lhand -20.9781 -22.4654
lfingers 7.12502
lthumb 5.39548 7.44592
rfemur -67.4252 -10.4529 16.9375
rtibia 71.8767
rfoot -20.0224 -16.2304
rtoes 22.2099
lfemur -23.2035 -4.2544 -28.5313
ltibia 60.1769
lfoot -34.8071 -9.9258
ltoes -22.0911
114
root -6.00914 15.4255 -11.5135 21.2754 37.3331 8.01596
lowerback 20.6129 -2.17679 -5.89663
upperback 3.86096 -3.91494 0.849672
thorax -6.82543 -1.71887 5.27852
lowerneck -10.4819 1.61176 0.00889642
upperneck -8.85583 2.22307 -1.17875
head -1.00773 1.1726 -0.316542
rclavicle 8.70677e-014 8.54774e-015
rhumerus -42.5433 -0.0679128 -85.3112
rradius 44.2172
rwrist -12.2712
rhand -14.2186 -35.3937
rfingers 7.12502
rthumb 11.9183 -65.0345
lclavicle 8.70677e-014 8.54774e-015
lhumerus -36.6821 -2.34099 94.8586
lradius 59.3763
lwrist 13.1796
lhand -22.1853 -22.6724
lfingers 7.12502
lthumb 4.22984 7.26532
rfemur -69.3551 -10.4365 17.2096
rtibia 67.6145
rfoot -17.6767 -16.093
rtoes 23.1546
lfemur -18.7504 -4.59768 -27.9877
ltibia 59.4427
lfoot -35.6213 -10.9549
ltoes -21.5464
115
root -5.61797 15.2851 -10.8987 20.6917 37.9426 8.39195
lowerback 20.03 -2.49846 -6.1312
upperback 3.86818 -4.34447 0.930762
thorax -6.42731 -1.94226 5.5609
lowerneck -10.3786 1.68578 0.0831949
upperneck -8.59438 2.31148 -1.15352
head -0.941356 1.21103 -0.317772
rclavicle -2.19657e-014 2.88238e-014
rhumerus -46.3069 1.08828 -85.2498
rradius 46.0064
rwrist -12.7609
rhand -15.0345 -35.4321
rfingers 7.12502
rthumb 11.1314 -65.1168
lclavicle -2.19657e-014 2.88238e-014
lhumerus -37.3873 -4.56794 95.6178
lradius 63.6018
lwrist 13.2455
lhand -22.785 -21.9468
lfingers 7.12502
lthumb 3.65068 8.00167
rfemur -70.9852 -10.7131 16.9902
rtibia 63.2663
rfoot -13.5034 -15.2837
rtoes 22.5218
lfemur -13.3539 -4.86873 -28.0064
ltibia 56.8652
lfoot -35.8806 -11.6999
ltoes -20.0437
116
root -5.1886 15.1671 -10.2419 20.3451 38.0985 9.1581
lowerback 19.2625 -2.70198 -6.75888
upperback 3.81957 -4.69782 0.912296
thorax -5.97219 -2.12811 5.92016
lowerneck -10.5611 1.7848 0.0591121
upperneck -8.14259 2.44084 -1.21379
head -0.771519 1.27146 -0.323702
rclavicle 3.56818e-014 -2.32578e-014
rhumerus -50.6812 2.00681 -85.0366
rradius 49.2887
rwrist -12.5942
rhand -15.7196 -35.4535
rfingers 7.12502
rthumb 10.4707 -65.1727
lclavicle 3.56818e-014 -2.32578e-014
lhumerus -38.7235 -7.07324 96.4674
lradius 68.4757
lwrist 12.6414
lhand -22.3542 -21.4243
lfingers 7.12502
lthumb 4.06674 8.5166
rfemur -71.8589 -10.9546 16.3525
rtibia 58.6452
rfoot -11.1781 -12.7509
rtoes 19.8407
lfemur -7.41864 -4.93424 -28.6116
ltibia 53.615
lfoot -35.8722 -12.1738
ltoes -19.7642
117
root -4.73762 15.0734 -9.54388 19.9233 38.6141 9.81717
lowerback 18.4672 -3.02291 -7.25155
upperback 3.73314 -5.15832 1.04999
thorax -5.51474 -2.37069 6.38314
lowerneck -10.8468 1.91129 0.0122913
upperneck -7.69575 2.60484 -1.45713
head -0.585073 1.3493 -0.379733
rclavicle 7.23576e-014 -4.11484e-014
rhumerus -55.2099 2.7955 -84.6696
rradius 53.3662
rwrist -12.8165
rhand -16.1118 -35.113
rfingers 7.12502
rthumb 10.0923 -64.8509
lclavicle 7.23576e-014 -4.11484e-014
lhumerus -40.1882 -9.33019 97.4163
lradius 73.4613
lwrist 11.8721
lhand -21.1144 -23.0664
lfingers 7.12502
lthumb 5.26386 6.84817
rfemur -71.5 -11.2531 15.5648
rtibia 53.2833
rfoot -10.2007 -10.5349
rtoes 21.5656
lfemur -1.44627 -5.26654 -28.8481
ltibia 49.9129
lfoot -34.5205 -13.4782
ltoes -19.4777
118
root -4.26601 14.992 -8.80096 18.9862 39.4208 9.85203
lowerback 17.5681 -3.46745 -7.38794
upperback 3.69268 -5.68517 1.4258
thorax -4.93986 -2.66185 6.88811
lowerneck -11.0234 2.13666 0.0261366
upperneck -7.41111 2.8877 -1.96985
head -0.45853 1.48509 -0.527113
rclavicle 1.05356e-013 -3.1408e-014
rhumerus -59.5204 3.57947 -84.182
rradius 57.4491
rwrist -13.7484
rhand -16.0311 -34.0372
rfingers 7.12502
rthumb 10.1701 -63.7714
lclavicle 1.05356e-013 -3.1408e-014
lhumerus -41.9212 -10.5677 98.3217
lradius 78.1309
lwrist 10.8376
lhand -19.5031 -25.13
lfingers 7.12502
lthumb 6.81953 4.74017
rfemur -70.1605 -11.318 15.0032
rtibia 47.8244
rfoot -11.4301 -9.09833
rtoes 19.3289
lfemur 4.66909 -5.91587 -28.3463
ltibia 45.7025
lfoot -31.1662 -15.4296
ltoes -18.9619
119
root -3.77252 14.9247 -8.02667 18.0927 40.2335 9.7646
lowerback 16.4209 -3.98805 -7.41863
upperback 3.56406 -6.28574 1.81733
thorax -4.31275 -2.99574 7.32429
lowerneck -11.0477 2.42762 0.0373388
upperneck -7.10858 3.26074 -2.43884
head -0.347831 1.66495 -0.659575
rclavicle -5.54609e-014 1.66979e-014
rhumerus -63.489 4.19203 -83.5515
rradius 61.0232
rwrist -15.0746
rhand -14.9877 -32.7919
rfingers 7.12502
rthumb 11.1766 -62.4742
lclavicle -5.54609e-014 1.66979e-014
lhumerus -43.8008 -11.2119 99.1712
lradius 82.2834
lwrist 9.84984
lhand -18.213 -27.4473
lfingers 7.12502
lthumb 8.06472 2.37886
rfemur -68.5453 -11.3226 14.4441
rtibia 42.9993
rfoot -11.4574 -7.5696
rtoes 14.9806
lfemur 10.3983 -6.60547 -27.675
ltibia 41.5525
lfoot -26.4979 -17.4214
ltoes -22.1767
